<?xml version="1.0" encoding="UTF-8" standalone="no"?>
<svg xmlns:rdf="http://www.w3.org/1999/02/22-rdf-syntax-ns#" xmlns="http://www.w3.org/2000/svg" xmlns:cc="http://creativecommons.org/ns#" xmlns:dc="http://purl.org/dc/elements/1.1/" id="svg2" xml:space="preserve" viewBox="0 0 353 439" height="40" width="40" version="1.1" class="svg-icon icon-corn icon-favorite">
<metadata id="metadata8">
    <rdf:RDF>
        <cc:Work rdf:about="">
            <dc:format>image/svg+xml</dc:format>
            <dc:type rdf:resource="http://purl.org/dc/dcmitype/StillImage"/>
            <dc:title/>
        </cc:Work>
    </rdf:RDF>
</metadata>
<defs id="defs6">
    <clipPath id="clipPath3935" clipPathUnits="userSpaceOnUse">
        <rect id="rect3937" style="fill:none" height="460.6" width="394.2" y="684.3" x="706.5"/>
    </clipPath>
</defs>
<g id="g3903" transform="translate(-736.7 -695.8)" clip-path="url(#clipPath3935)">
    <path id="path288" class="svg-corn-wrap-outer" d="m1081 916.4c-0.6573-1.335-4.24-8.369-10.1-15.67-13.56-16.91-27.61-20.46-37-20.46-2.897 0-5.804 0.3347-8.628 0.996-1.767 0.4147-3.484 0.9293-5.163 1.541-3.123-34.71 10.35-59.65 17.1-72.13 0.832-1.539 1.559-2.893 2.157-4.052 5.221-10.15 2.928-22.55-5.573-30.16-4.731-4.233-10.71-6.391-16.73-6.391-4.809 0-9.637 1.375-13.86 4.179-2.004 1.327-10.29 7.22-19.45 19.18 0.2627-1.84 0.4413-3.704 0.4413-5.62 0-14.3-7.517-26.84-18.79-33.97-1.465-11.62-8.24-21.58-17.82-27.4-3.155-17.35-18.47-30.56-36.87-30.56-18.36 0-33.64 13.15-36.85 30.44-9.925 5.949-16.92 16.31-18.15 28.39-10.52 7.264-17.44 19.39-17.44 33.11 0 0.3133 0.0427 0.6213 0.0507 0.9347-7.572-8.836-13.93-13.35-15.65-14.49-4.224-2.805-9.052-4.184-13.86-4.184-6.015 0-12 2.157-16.72 6.391-8.505 7.611-10.8 20-5.579 30.16 0.5987 1.159 1.325 2.509 2.159 4.049 6.745 12.49 20.22 37.43 17.09 72.14-1.673-0.612-3.392-1.127-5.155-1.541-2.824-0.6613-5.721-0.996-8.619-0.996h-0.009c-9.395 0-23.44 3.551-37 20.45-5.86 7.308-9.444 14.34-10.1 15.68-0.1187 0.2493-0.2373 0.4973-0.352 0.748-19.92 44 2.865 97.51 5.527 103.5 3.917 8.759 12.33 14.29 21.48 14.8 2.404 18.44 9.38 42.04 28.72 61.98 24.04 24.78 60.77 37.34 109.2 37.34 1.163 0 2.327-0.01 3.507-0.02 1.173 0.013 2.349 0.02 3.504 0.02 48.42 0 85.15-12.57 109.2-37.34 19.34-19.94 26.31-43.54 28.71-61.98 9.149-0.5107 17.57-6.035 21.48-14.79 2.661-5.955 25.45-59.46 5.519-103.5-0.1147-0.2493-0.2293-0.4933-0.352-0.7387"/>
    <path id="path290" class="svg-corn-cob" d="m923.4 733c0-6.672-5.565-12.09-12.42-12.09-6.864 0-12.42 5.416-12.42 12.09 0 6.677 5.559 12.09 12.42 12.09 6.857 0 12.42-5.415 12.42-12.09"/>
    <path id="path292" class="svg-corn-cob" d="m893.9 787.8c0-8.367-6.784-15.15-15.15-15.15-8.367 0-15.15 6.783-15.15 15.15s6.783 15.15 15.15 15.15c8.365 0 15.15-6.783 15.15-15.15"/>
    <path id="path294" class="svg-corn-cob" d="m926.1 788.8c0-8.367-6.783-15.15-15.15-15.15-8.365 0-15.15 6.783-15.15 15.15s6.784 15.15 15.15 15.15c8.367 0 15.15-6.783 15.15-15.15"/>
    <path id="path296" class="svg-corn-cob" d="m959.3 787.8c0-8.367-6.783-15.15-15.15-15.15-8.365 0-15.15 6.783-15.15 15.15s6.783 15.15 15.15 15.15c8.368 0 15.15-6.783 15.15-15.15"/>
    <path id="path298" class="svg-corn-cob" d="m965.3 827c0-9.325-7.567-16.89-16.9-16.89-9.321 0-16.89 7.563-16.89 16.89 0 9.329 7.565 16.89 16.89 16.89 9.329 0 16.9-7.561 16.9-16.89"/>
    <path id="path300" class="svg-corn-cob" d="m927.8 827c0-9.325-7.567-16.89-16.89-16.89-9.329 0-16.9 7.563-16.9 16.89 0 9.329 7.567 16.89 16.9 16.89 9.321 0 16.89-7.561 16.89-16.89"/>
    <path id="path302" class="svg-corn-cob" d="m891.3 827c0-9.325-7.559-16.89-16.89-16.89-9.329 0-16.89 7.563-16.89 16.89 0 9.329 7.559 16.89 16.89 16.89 9.329 0 16.89-7.561 16.89-16.89"/>
    <path id="path304" class="svg-corn-cob" d="m966.6 868.1c0-9.331-7.567-16.89-16.89-16.89-9.329 0-16.9 7.561-16.9 16.89 0 9.325 7.567 16.89 16.9 16.89 9.321 0 16.89-7.561 16.89-16.89"/>
    <path id="path306" class="svg-corn-cob" d="m927.8 868.1c0-9.331-7.567-16.89-16.89-16.89-9.329 0-16.9 7.561-16.9 16.89 0 9.325 7.567 16.89 16.9 16.89 9.321 0 16.89-7.561 16.89-16.89"/>
    <path id="path308" class="svg-corn-cob" d="m890.1 868.1c0-9.331-7.567-16.89-16.9-16.89-9.321 0-16.89 7.561-16.89 16.89 0 9.325 7.565 16.89 16.89 16.89 9.329 0 16.9-7.561 16.9-16.89"/>
    <path id="path310" class="svg-corn-cob" d="m966.6 906.7c0-9.329-7.567-16.89-16.89-16.89-9.329 0-16.9 7.563-16.9 16.89 0 9.325 7.567 16.89 16.9 16.89 9.321 0 16.89-7.563 16.89-16.89"/>
    <path id="path312" class="svg-corn-cob" d="m927.3 906.7c0-9.329-7.557-16.89-16.89-16.89-9.331 0-16.89 7.563-16.89 16.89 0 9.325 7.559 16.89 16.89 16.89 9.329 0 16.89-7.563 16.89-16.89"/>
    <path id="path314" class="svg-corn-cob" d="m890.1 906.7c0-9.329-7.567-16.89-16.9-16.89-9.321 0-16.89 7.563-16.89 16.89 0 9.325 7.565 16.89 16.89 16.89 9.329 0 16.9-7.563 16.9-16.89"/>
    <path id="path316" class="svg-corn-cob" d="m966.1 947.5c0-9.329-7.567-16.89-16.89-16.89-9.329 0-16.9 7.563-16.9 16.89s7.567 16.89 16.9 16.89c9.321 0 16.89-7.561 16.89-16.89"/>
    <path id="path318" class="svg-corn-cob" d="m926.8 947.5c0-9.329-7.557-16.89-16.89-16.89-9.331 0-16.89 7.563-16.89 16.89s7.559 16.89 16.89 16.89c9.329 0 16.89-7.561 16.89-16.89"/>
    <path id="path320" class="svg-corn-cob" d="m889.6 947.5c0-9.329-7.565-16.89-16.9-16.89-9.32 0-16.89 7.563-16.89 16.89s7.567 16.89 16.89 16.89c9.331 0 16.9-7.561 16.9-16.89"/>
    <path id="path322" class="svg-corn-cob" d="m942.4 1017c0-6.987-5.664-12.65-12.65-12.65-6.988 0-12.65 5.664-12.65 12.65 0 6.984 5.665 12.65 12.65 12.65s12.65-5.665 12.65-12.65"/>
    <path id="path324" class="svg-corn-cob" d="m906.7 1017c0-6.987-5.665-12.65-12.65-12.65-6.979 0-12.64 5.664-12.64 12.65 0 6.984 5.664 12.65 12.64 12.65 6.987 0 12.65-5.665 12.65-12.65"/>
    <path id="path326" class="svg-corn-cob" d="m924.7 1042c0-6.981-5.665-12.65-12.65-12.65-6.979 0-12.64 5.664-12.64 12.65 0 6.988 5.665 12.65 12.64 12.65 6.987 0 12.65-5.664 12.65-12.65"/>
    <path id="path328" class="svg-corn-cob" d="m926.2 986.7c0-8.431-6.831-15.26-15.25-15.26-8.432 0-15.26 6.831-15.26 15.26 0 8.424 6.832 15.26 15.26 15.26 8.424 0 15.25-6.835 15.25-15.26"/>
    <path id="path330" class="svg-corn-cob" d="m960.3 986.7c0-8.431-6.832-15.26-15.26-15.26-8.431 0-15.26 6.831-15.26 15.26 0 8.424 6.832 15.26 15.26 15.26 8.424 0 15.26-6.835 15.26-15.26"/>
    <path id="path332" class="svg-corn-cob" d="m893.6 985.4c0-8.432-6.831-15.26-15.26-15.26-8.431 0-15.26 6.831-15.26 15.26 0 8.424 6.832 15.26 15.26 15.26 8.433 0 15.26-6.836 15.26-15.26"/>
    <path id="path334" class="svg-corn-cob" d="m940.9 758.5c0-6.923-5.615-12.54-12.54-12.54-6.923 0-12.54 5.616-12.54 12.54 0 6.925 5.616 12.54 12.54 12.54 6.921 0 12.54-5.611 12.54-12.54"/>
    <path id="path336" class="svg-corn-cob" d="m905.9 758.5c0-6.923-5.615-12.54-12.54-12.54-6.921 0-12.54 5.616-12.54 12.54 0 6.925 5.616 12.54 12.54 12.54 6.921 0 12.54-5.611 12.54-12.54"/>
    <path id="path338" class="svg-corn-wrap-inner" d="m1059 927.5s-12.49-25.34-27.51-21.81c-15.02 3.525-21.07 24.07-22.29 39.22-1.215 15.15 2.704 51.54-6.179 58.33 0 0 2.693-55.2-6.013-107.4-8.703-52.24 14.28-88.46 20.55-100.6 0 0-37.27 24.72-37.27 96.12 0 71.39-2.081 150.4-66.86 179.7-64.79-29.25-66.87-108.3-66.87-179.7s-37.26-96.12-37.26-96.12c6.269 12.19 29.25 48.41 20.55 100.6-8.701 52.24-6.008 107.4-6.008 107.4-8.88-6.789-4.963-43.18-6.187-58.33-1.217-15.15-7.265-35.7-22.28-39.22-15.02-3.527-27.52 21.81-27.52 21.81-15.84 35 5.576 82.88 5.576 82.88s-8.359-76.97 17.41-75.92c0 0 8.357-0.692 8.008 13.24-0.344 13.93-3.477 48.41-2.784 58.16 0.6933 9.751-13.58 105.5 117.4 103.8 130.9 1.743 116.7-94.03 117.4-103.8 0.6947-9.748-2.433-44.23-2.784-58.16-0.3427-13.93 8.008-13.24 8.008-13.24 25.77-1.044 17.42 75.92 17.42 75.92s21.42-47.89 5.567-82.88"/>
</g>
<path id="path3943" style="fill:none" d="m3.166e-7 209.6v-229.2h196 196v229.2 229.2h-196-196v-229.2zm262.4 214.9c28.43-7.941 55.22-26.34 68.13-46.78 5.259-8.331 13.4-29.33 15.8-40.78 0.8172-3.889 3.525-6.466 8.798-8.372 9.419-3.406 12.95-8.65 19-28.24 7.369-23.86 9.66-45.24 6.815-63.58-3.217-20.73-8.569-32.28-21.25-45.83-11.68-12.49-27.26-18.87-40.17-16.45-7.101 1.332-7.298 1.164-7.298-6.222 0-14.94 4.942-34.17 13.47-52.45 11.26-24.12 11.5-33.3 1.142-43.65-6.27-6.27-9.152-7.53-17.22-7.53-9.778 0-15.83 2.895-26.43 12.64l-5.787 5.321-1.452-9.077c-0.9-6.3-4.1-12.27-9.9-18.56-4.6-5.13-9.1-12.04-9.9-15.37-0.8046-3.326-4.9-9.485-9.102-13.69-4.201-4.201-8.279-10.19-9.061-13.31-0.7823-3.117-4.789-8.623-8.903-12.24-17.06-14.98-39.19-14.15-54.62 2.055-4.568 4.798-8.305 10.64-8.305 12.98 0 2.343-2.583 5.953-5.74 8.021-3.157 2.069-8.024 8.91-10.81 15.2-2.791 6.293-7.093 13.26-9.56 15.48-4.061 3.654-6.479 8.367-10.17 19.82-1.132 3.515-2.232 3.225-10.51-2.768-13.42-9.718-26.22-9.425-36.48 0.8356-9.62 9.62-10.13 20.72-1.701 37.34 8.891 17.55 14.01 34.17 15.52 50.4l1.368 14.72-13.02 0.0115c-15.82 0.0138-23.45 3.687-36.03 17.33-23.27 25.25-27.98 64.51-13.15 109.6 6.195 18.84 9.539 23.66 18.73 26.98 5.268 1.905 7.984 4.487 8.805 8.372 2.77 13.1 8.336 28.37 13.63 37.41 16.13 27.52 49.97 47.86 90.22 54.24 15.49 2.452 82.05-0.4036 95.23-4.086z"/>
<path id="path3945" style="fill:none" d="m3.166e-7 209.6v-229.2h196 196v229.2 229.2h-196-196v-229.2zm262.4 214.9c28.43-7.941 55.22-26.34 68.13-46.78 5.259-8.331 13.4-29.33 15.8-40.78 0.8172-3.889 3.525-6.466 8.798-8.372 9.419-3.406 12.95-8.65 19-28.24 7.369-23.86 9.66-45.24 6.815-63.58-3.217-20.73-8.569-32.28-21.25-45.83-11.68-12.49-27.26-18.87-40.17-16.45-7.101 1.332-7.298 1.164-7.298-6.222 0-14.94 4.942-34.17 13.47-52.45 11.26-24.12 11.5-33.3 1.142-43.65-6.27-6.27-9.152-7.53-17.22-7.53-9.778 0-15.83 2.895-26.43 12.64l-5.787 5.321-1.452-9.077c-0.9-6.3-4.1-12.27-9.9-18.56-4.6-5.13-9.1-12.04-9.9-15.37-0.8046-3.326-4.9-9.485-9.102-13.69-4.201-4.201-8.279-10.19-9.061-13.31-0.7823-3.117-4.789-8.623-8.903-12.24-17.06-14.98-39.19-14.15-54.62 2.055-4.568 4.798-8.305 10.64-8.305 12.98 0 2.343-2.583 5.953-5.74 8.021-3.157 2.069-8.024 8.91-10.81 15.2-2.791 6.293-7.093 13.26-9.56 15.48-4.061 3.654-6.479 8.367-10.17 19.82-1.132 3.515-2.232 3.225-10.51-2.768-13.42-9.718-26.22-9.425-36.48 0.8356-9.62 9.62-10.13 20.72-1.701 37.34 8.891 17.55 14.01 34.17 15.52 50.4l1.368 14.72-13.02 0.0115c-15.82 0.0138-23.45 3.687-36.03 17.33-23.27 25.25-27.98 64.51-13.15 109.6 6.195 18.84 9.539 23.66 18.73 26.98 5.268 1.905 7.984 4.487 8.805 8.372 2.77 13.1 8.336 28.37 13.63 37.41 16.13 27.52 49.97 47.86 90.22 54.24 15.49 2.452 82.05-0.4036 95.23-4.086z"/>
</svg>
